<svg xmlns="http://www.w3.org/2000/svg" width="252" height="70" viewBox="0 0 252 70" fill="none">
    <g filter="url(#filter0_d_6979_17980)">
        <rect x="5" y="1" width="242" height="60" rx="8" stroke="white" stroke-width="2" shape-rendering="crispEdges" />
        <path
            d="M33 30C32.7348 30 32.4804 30.1054 32.2929 30.2929C32.1054 30.4804 32 30.7348 32 31V35C32 35.2652 32.1054 35.5196 32.2929 35.7071C32.4804 35.8946 32.7348 36 33 36C33.2652 36 33.5196 35.8946 33.7071 35.7071C33.8946 35.5196 34 35.2652 34 35V31C34 30.7348 33.8946 30.4804 33.7071 30.2929C33.5196 30.1054 33.2652 30 33 30ZM33.38 26.08C33.1365 25.98 32.8635 25.98 32.62 26.08C32.4973 26.1276 32.3851 26.199 32.29 26.29C32.2017 26.3872 32.1306 26.4988 32.08 26.62C32.024 26.7387 31.9966 26.8688 32 27C31.9992 27.1316 32.0245 27.2621 32.0742 27.3839C32.124 27.5057 32.1973 27.6166 32.29 27.71C32.3872 27.7983 32.4988 27.8694 32.62 27.92C32.7715 27.9822 32.936 28.0063 33.099 27.9901C33.2619 27.9739 33.4184 27.9179 33.5547 27.8271C33.691 27.7362 33.8029 27.6133 33.8805 27.4691C33.9582 27.3249 33.9992 27.1638 34 27C33.9963 26.7352 33.8927 26.4816 33.71 26.29C33.6149 26.199 33.5028 26.1276 33.38 26.08ZM33 21C31.0222 21 29.0888 21.5865 27.4443 22.6853C25.7998 23.7841 24.5181 25.3459 23.7612 27.1732C23.0043 29.0004 22.8063 31.0111 23.1922 32.9509C23.578 34.8907 24.5304 36.6725 25.9289 38.0711C27.3275 39.4696 29.1093 40.422 31.0491 40.8079C32.9889 41.1937 34.9996 40.9957 36.8268 40.2388C38.6541 39.4819 40.2159 38.2002 41.3147 36.5557C42.4135 34.9112 43 32.9778 43 31C43 29.6868 42.7413 28.3864 42.2388 27.1732C41.7363 25.9599 40.9997 24.8575 40.0711 23.9289C39.1425 23.0003 38.0401 22.2638 36.8268 21.7612C35.6136 21.2587 34.3132 21 33 21V21ZM33 39C31.4178 39 29.871 38.5308 28.5554 37.6518C27.2398 36.7727 26.2145 35.5233 25.609 34.0615C25.0035 32.5997 24.845 30.9911 25.1537 29.4393C25.4624 27.8874 26.2243 26.462 27.3432 25.3431C28.462 24.2243 29.8874 23.4624 31.4393 23.1537C32.9911 22.845 34.5997 23.0035 36.0615 23.609C37.5233 24.2145 38.7727 25.2398 39.6518 26.5554C40.5308 27.871 41 29.4177 41 31C41 33.1217 40.1572 35.1566 38.6569 36.6569C37.1566 38.1571 35.1217 39 33 39V39Z"
            fill="white" />
        <path
            d="M57.112 30.872C57.944 31.0107 58.7067 31.08 59.4 31.08C60.0933 31.08 60.536 31.0747 60.728 31.064C60.7067 30.2533 60.696 29.4747 60.696 28.728C60.696 27.9813 60.696 27.4747 60.696 27.208C60.696 26.9413 60.7067 26.776 60.728 26.712C60.7493 26.6373 60.8187 26.568 60.936 26.504C61.0533 26.44 61.224 26.408 61.448 26.408C61.768 26.408 61.928 26.6 61.928 26.984V32.648C61.928 33.8213 61.9013 35.112 61.848 36.52C61.8373 36.8293 61.576 36.984 61.064 36.984C60.808 36.984 60.68 36.8293 60.68 36.52L60.744 32.28C60.4027 32.3013 59.9333 32.312 59.336 32.312C58.7493 32.312 58.008 32.248 57.112 32.12C57.112 33.528 57.176 35 57.304 36.536C57.3147 36.7067 57.24 36.84 57.08 36.936C56.92 37.0213 56.7173 37.064 56.472 37.064C56.2373 37.064 56.1093 36.9413 56.088 36.696C55.9493 35.1813 55.88 33.688 55.88 32.216L55.976 27.224C55.976 27.0107 56.056 26.856 56.216 26.76C56.376 26.6533 56.5467 26.6 56.728 26.6C57.0267 26.6 57.176 26.744 57.176 27.032L57.112 30.872ZM67.8764 29.528C68.3457 29.528 68.5804 29.928 68.5804 30.728C68.5804 30.8133 68.5804 30.904 68.5804 31L68.5484 32.12C68.5377 32.472 68.5324 32.8187 68.5324 33.16L68.7724 36.776C68.7724 37.0427 68.5004 37.176 67.9564 37.176C67.9244 37.176 67.8444 37.176 67.7164 37.176C67.599 37.176 67.5137 37.128 67.4604 37.032C67.4177 36.936 67.4124 36.8187 67.4444 36.68C67.487 36.5413 67.4764 36.3867 67.4124 36.216C66.9217 36.7387 66.271 37 65.4604 37C63.9564 37 63.2044 35.8373 63.2044 33.512C63.2044 32.2213 63.4444 31.2453 63.9244 30.584C64.415 29.9227 65.1137 29.592 66.0204 29.592C66.447 29.592 66.8737 29.6667 67.3004 29.816C67.439 29.624 67.631 29.528 67.8764 29.528ZM66.2124 30.984C65.6044 30.984 65.151 31.16 64.8524 31.512C64.5537 31.864 64.4044 32.5093 64.4044 33.448C64.4044 35.0267 64.831 35.816 65.6844 35.816C65.9084 35.816 66.1537 35.7147 66.4204 35.512C66.6977 35.3093 66.8897 35.08 66.9964 34.824C67.199 34.248 67.3004 33.6187 67.3004 32.936C67.3004 32.2533 67.215 31.7573 67.0444 31.448C66.8844 31.1387 66.607 30.984 66.2124 30.984ZM75.166 29.448C75.3153 29.448 75.4273 29.5013 75.502 29.608C75.5767 29.704 75.614 29.8107 75.614 29.928L75.598 30.088C75.15 31.2293 74.8193 32.1573 74.606 32.872C74.4673 33.3733 74.3607 33.7467 74.286 33.992C74.222 34.2373 74.11 34.6693 73.95 35.288C73.79 35.9067 73.6833 36.3067 73.63 36.488C73.4807 36.8507 73.2193 37.032 72.846 37.032C72.6647 37.032 72.5367 36.9147 72.462 36.68C72.1207 35.6133 71.6193 34.408 70.958 33.064C70.2967 31.72 69.918 30.952 69.822 30.76C69.7367 30.5573 69.694 30.376 69.694 30.216C69.694 30.056 69.7633 29.9013 69.902 29.752C70.0513 29.6027 70.2167 29.528 70.398 29.528C70.5793 29.528 70.734 29.624 70.862 29.816C70.9793 30.0507 71.31 30.7067 71.854 31.784C72.4087 32.8613 72.798 33.7093 73.022 34.328C73.0327 34.264 73.07 34.1307 73.134 33.928C73.678 32.04 74.1207 30.6907 74.462 29.88C74.6433 29.592 74.878 29.448 75.166 29.448ZM79.0282 29.592C79.5936 29.592 80.1322 29.7573 80.6442 30.088C81.1562 30.4187 81.4122 30.8293 81.4122 31.32C81.4122 31.8 81.2042 32.2693 80.7882 32.728C80.3722 33.176 79.8176 33.448 79.1242 33.544C78.8256 33.5867 78.3776 33.608 77.7802 33.608C77.8976 34.5147 78.1269 35.112 78.4682 35.4C78.5749 35.5173 78.7189 35.576 78.9002 35.576C79.5616 35.576 80.1162 35.368 80.5642 34.952C81.0122 34.5253 81.3322 34.312 81.5242 34.312C81.6096 34.312 81.7376 34.392 81.9082 34.552C82.0789 34.712 82.1642 34.8613 82.1642 35C82.1642 35.2773 81.8282 35.6773 81.1562 36.2C80.8576 36.4453 80.4949 36.6533 80.0682 36.824C79.6522 36.984 79.2629 37.064 78.9002 37.064C77.9722 37.064 77.2896 36.4667 76.8522 35.272C76.5749 34.536 76.4362 33.7253 76.4362 32.84C76.4362 31.9547 76.6442 31.192 77.0602 30.552C77.4762 29.912 78.1322 29.592 79.0282 29.592ZM79.1082 30.696C78.7029 30.696 78.3562 30.9253 78.0682 31.384C77.9616 31.544 77.8602 31.9067 77.7642 32.472C79.2576 32.472 80.0042 32.104 80.0042 31.368C80.0042 30.92 79.7056 30.696 79.1082 30.696ZM91.8908 29.528C92.3601 29.528 92.5948 29.928 92.5948 30.728C92.5948 30.8133 92.5948 30.904 92.5948 31L92.5628 32.12C92.5521 32.472 92.5468 32.8187 92.5468 33.16L92.7868 36.776C92.7868 37.0427 92.5148 37.176 91.9708 37.176C91.9388 37.176 91.8588 37.176 91.7308 37.176C91.6134 37.176 91.5281 37.128 91.4748 37.032C91.4321 36.936 91.4268 36.8187 91.4588 36.68C91.5014 36.5413 91.4908 36.3867 91.4268 36.216C90.9361 36.7387 90.2854 37 89.4748 37C87.9708 37 87.2188 35.8373 87.2188 33.512C87.2188 32.2213 87.4588 31.2453 87.9388 30.584C88.4294 29.9227 89.1281 29.592 90.0348 29.592C90.4614 29.592 90.8881 29.6667 91.3148 29.816C91.4534 29.624 91.6454 29.528 91.8908 29.528ZM90.2268 30.984C89.6188 30.984 89.1654 31.16 88.8668 31.512C88.5681 31.864 88.4188 32.5093 88.4188 33.448C88.4188 35.0267 88.8454 35.816 89.6988 35.816C89.9228 35.816 90.1681 35.7147 90.4348 35.512C90.7121 35.3093 90.9041 35.08 91.0108 34.824C91.2134 34.248 91.3148 33.6187 91.3148 32.936C91.3148 32.2533 91.2294 31.7573 91.0588 31.448C90.8988 31.1387 90.6214 30.984 90.2268 30.984ZM98.6279 36.504L98.4519 30.008C98.4519 29.8053 98.5212 29.64 98.6599 29.512C98.7985 29.384 98.9372 29.32 99.0759 29.32C99.4172 29.32 99.6145 29.464 99.6679 29.752C99.7105 30.04 99.7319 30.3387 99.7319 30.648C100.308 29.8907 101.028 29.512 101.892 29.512C103.215 29.512 103.876 31.0213 103.876 34.04C103.876 34.3173 103.876 34.7387 103.876 35.304C103.876 35.8587 103.844 36.264 103.78 36.52C103.705 36.84 103.476 37 103.092 37C102.836 37 102.708 36.8293 102.708 36.488L102.724 35.592C102.724 34.3547 102.681 33.512 102.596 33.064C102.521 32.6053 102.447 32.2427 102.372 31.976C102.191 31.4 101.897 31.112 101.492 31.112C100.959 31.112 100.585 31.304 100.372 31.688C100.137 32.104 99.9985 32.5947 99.9559 33.16C99.8812 34.152 99.8439 35.2027 99.8439 36.312C99.8439 36.5253 99.7639 36.696 99.6039 36.824C99.4439 36.952 99.2519 37.016 99.0279 37.016C98.7612 37.016 98.6279 36.8453 98.6279 36.504ZM106.63 26.888C106.822 26.888 107.004 26.9787 107.174 27.16C107.345 27.3413 107.43 27.5333 107.43 27.736C107.43 27.928 107.334 28.1253 107.142 28.328C106.961 28.5307 106.769 28.632 106.566 28.632C106.364 28.632 106.177 28.5467 106.006 28.376C105.846 28.2053 105.766 27.9867 105.766 27.72C105.766 27.208 106.044 26.9307 106.598 26.888C106.609 26.888 106.62 26.888 106.63 26.888ZM107.302 35.272L107.318 36.392C107.318 36.5947 107.238 36.7653 107.078 36.904C106.918 37.032 106.748 37.096 106.566 37.096C106.3 37.096 106.161 36.9627 106.15 36.696C106.012 33.2933 105.942 31.4107 105.942 31.048C105.942 30.6853 105.958 30.2427 105.99 29.72C106.012 29.528 106.134 29.432 106.358 29.432C106.924 29.432 107.244 29.6613 107.318 30.12C107.35 30.3547 107.366 30.5413 107.366 30.68L107.302 31.688V35.272ZM109.248 33.256C109.248 32.5413 109.435 31.8907 109.808 31.304C110.192 30.7173 110.678 30.28 111.264 29.992C111.851 29.6933 112.422 29.544 112.976 29.544C113.531 29.544 113.974 29.6133 114.304 29.752C114.646 29.88 114.816 30.056 114.816 30.28C114.816 30.4933 114.752 30.712 114.624 30.936C114.507 31.1493 114.347 31.256 114.144 31.256C114.07 31.256 113.862 31.1973 113.52 31.08C113.19 30.952 112.976 30.888 112.88 30.888C112.262 30.888 111.734 31.1173 111.296 31.576C110.859 32.024 110.64 32.6213 110.64 33.368C110.64 34.1147 110.758 34.6747 110.992 35.048C111.238 35.4107 111.654 35.592 112.24 35.592C112.475 35.592 112.875 35.4587 113.44 35.192C114.016 34.9147 114.374 34.776 114.512 34.776C114.651 34.776 114.763 34.8187 114.848 34.904C114.934 34.9893 114.976 35.096 114.976 35.224C114.976 35.48 114.811 35.752 114.48 36.04C114.16 36.3173 113.76 36.552 113.28 36.744C112.8 36.9253 112.368 37.016 111.984 37.016C111.131 37.016 110.459 36.68 109.968 36.008C109.488 35.336 109.248 34.4187 109.248 33.256ZM118.3 29.592C118.865 29.592 119.404 29.7573 119.916 30.088C120.428 30.4187 120.684 30.8293 120.684 31.32C120.684 31.8 120.476 32.2693 120.06 32.728C119.644 33.176 119.089 33.448 118.396 33.544C118.097 33.5867 117.649 33.608 117.052 33.608C117.169 34.5147 117.398 35.112 117.74 35.4C117.846 35.5173 117.99 35.576 118.172 35.576C118.833 35.576 119.388 35.368 119.836 34.952C120.284 34.5253 120.604 34.312 120.796 34.312C120.881 34.312 121.009 34.392 121.18 34.552C121.35 34.712 121.436 34.8613 121.436 35C121.436 35.2773 121.1 35.6773 120.428 36.2C120.129 36.4453 119.766 36.6533 119.34 36.824C118.924 36.984 118.534 37.064 118.172 37.064C117.244 37.064 116.561 36.4667 116.124 35.272C115.846 34.536 115.708 33.7253 115.708 32.84C115.708 31.9547 115.916 31.192 116.332 30.552C116.748 29.912 117.404 29.592 118.3 29.592ZM118.38 30.696C117.974 30.696 117.628 30.9253 117.34 31.384C117.233 31.544 117.132 31.9067 117.036 32.472C118.529 32.472 119.276 32.104 119.276 31.368C119.276 30.92 118.977 30.696 118.38 30.696ZM130.522 29.512L130.506 26.424C130.506 25.848 130.687 25.56 131.05 25.56C131.423 25.56 131.631 25.72 131.674 26.04C131.695 26.1787 131.722 27.016 131.754 28.552C131.786 30.088 131.834 31.528 131.898 32.872C131.973 34.216 132.01 35.4693 132.01 36.632C132.01 36.952 131.77 37.112 131.29 37.112C130.97 37.112 130.81 36.888 130.81 36.44C130.351 36.8027 129.807 36.984 129.178 36.984C128.378 36.984 127.727 36.6853 127.226 36.088C126.735 35.4907 126.49 34.7547 126.49 33.88C126.49 33.0053 126.666 32.1893 127.018 31.432C127.381 30.664 127.941 30.1147 128.698 29.784C129.167 29.5813 129.621 29.48 130.058 29.48C130.218 29.48 130.373 29.4907 130.522 29.512ZM130.602 31.704C130.527 31.4693 130.437 31.2933 130.33 31.176C130.223 31.048 130.106 30.9733 129.978 30.952C129.861 30.92 129.717 30.904 129.546 30.904C129.375 30.904 129.167 30.968 128.922 31.096C128.677 31.224 128.469 31.432 128.298 31.72C127.957 32.296 127.786 32.904 127.786 33.544C127.786 34.1733 127.909 34.6907 128.154 35.096C128.41 35.4907 128.767 35.688 129.226 35.688C129.695 35.688 130.063 35.4587 130.33 35C130.597 34.5413 130.73 33.9547 130.73 33.24C130.73 32.44 130.687 31.928 130.602 31.704ZM137.716 29.528C138.186 29.528 138.42 29.928 138.42 30.728C138.42 30.8133 138.42 30.904 138.42 31L138.388 32.12C138.378 32.472 138.372 32.8187 138.372 33.16L138.612 36.776C138.612 37.0427 138.34 37.176 137.796 37.176C137.764 37.176 137.684 37.176 137.556 37.176C137.439 37.176 137.354 37.128 137.3 37.032C137.258 36.936 137.252 36.8187 137.284 36.68C137.327 36.5413 137.316 36.3867 137.252 36.216C136.762 36.7387 136.111 37 135.3 37C133.796 37 133.044 35.8373 133.044 33.512C133.044 32.2213 133.284 31.2453 133.764 30.584C134.255 29.9227 134.954 29.592 135.86 29.592C136.287 29.592 136.714 29.6667 137.14 29.816C137.279 29.624 137.471 29.528 137.716 29.528ZM136.052 30.984C135.444 30.984 134.991 31.16 134.692 31.512C134.394 31.864 134.244 32.5093 134.244 33.448C134.244 35.0267 134.671 35.816 135.524 35.816C135.748 35.816 135.994 35.7147 136.26 35.512C136.538 35.3093 136.73 35.08 136.836 34.824C137.039 34.248 137.14 33.6187 137.14 32.936C137.14 32.2533 137.055 31.7573 136.884 31.448C136.724 31.1387 136.447 30.984 136.052 30.984ZM144.942 29.608C145.081 29.608 145.214 29.656 145.342 29.752C145.481 29.848 145.55 29.9547 145.55 30.072C145.55 30.3813 145.097 32.056 144.19 35.096C143.283 38.136 142.611 40.2693 142.174 41.496C142.078 41.784 141.929 41.928 141.726 41.928C141.523 41.928 141.363 41.8533 141.246 41.704C141.129 41.5653 141.07 41.3573 141.07 41.08C141.07 40.8027 141.246 40.136 141.598 39.08C141.961 38.0347 142.179 37.368 142.254 37.08C141.987 36.632 141.086 34.392 139.55 30.36C139.529 30.3067 139.518 30.2373 139.518 30.152C139.518 30.0667 139.582 29.9547 139.71 29.816C139.838 29.6773 140.014 29.608 140.238 29.608C140.462 29.608 140.643 29.72 140.782 29.944C140.931 30.328 141.177 31 141.518 31.96C141.859 32.9093 142.121 33.5973 142.302 34.024C142.494 34.4507 142.675 34.8933 142.846 35.352C142.995 34.8507 143.251 33.88 143.614 32.44C143.977 30.9893 144.185 30.1627 144.238 29.96C144.281 29.7253 144.515 29.608 144.942 29.608ZM148.94 25.992L148.796 31.448C148.796 32.0347 148.801 32.4187 148.812 32.6C148.769 32.7387 148.684 32.8613 148.556 32.968C148.438 33.0747 148.305 33.128 148.156 33.128C148.006 33.128 147.884 33.0107 147.788 32.776C147.628 30.088 147.548 27.8267 147.548 25.992C147.644 25.7253 147.889 25.592 148.284 25.592C148.678 25.592 148.897 25.7253 148.94 25.992ZM147.836 36.232C147.676 36.04 147.596 35.848 147.596 35.656C147.596 35.464 147.67 35.288 147.82 35.128C147.969 34.968 148.166 34.888 148.412 34.888C148.668 34.888 148.849 34.936 148.956 35.032C149.073 35.128 149.132 35.336 149.132 35.656C149.132 36.2213 148.897 36.504 148.428 36.504C148.193 36.504 147.996 36.4133 147.836 36.232Z"
            fill="white" />
        <path
            d="M222.175 30.9999L227.425 25.7582C227.582 25.6013 227.67 25.3885 227.67 25.1666C227.67 24.9447 227.582 24.7318 227.425 24.5749C227.268 24.418 227.055 24.3298 226.833 24.3298C226.612 24.3298 226.399 24.418 226.242 24.5749L221 29.8249L215.758 24.5749C215.602 24.418 215.389 24.3298 215.167 24.3298C214.945 24.3298 214.732 24.418 214.575 24.5749C214.418 24.7318 214.33 24.9447 214.33 25.1666C214.33 25.3885 214.418 25.6013 214.575 25.7582L219.825 30.9999L214.575 36.2416C214.497 36.319 214.435 36.4112 214.393 36.5128C214.35 36.6143 214.329 36.7232 214.329 36.8332C214.329 36.9433 214.35 37.0522 214.393 37.1537C214.435 37.2553 214.497 37.3474 214.575 37.4249C214.653 37.503 214.745 37.565 214.846 37.6073C214.948 37.6496 215.057 37.6714 215.167 37.6714C215.277 37.6714 215.386 37.6496 215.487 37.6073C215.589 37.565 215.681 37.503 215.758 37.4249L221 32.1749L226.242 37.4249C226.319 37.503 226.411 37.565 226.513 37.6073C226.615 37.6496 226.723 37.6714 226.833 37.6714C226.943 37.6714 227.052 37.6496 227.154 37.6073C227.255 37.565 227.348 37.503 227.425 37.4249C227.503 37.3474 227.565 37.2553 227.608 37.1537C227.65 37.0522 227.672 36.9433 227.672 36.8332C227.672 36.7232 227.65 36.6143 227.608 36.5128C227.565 36.4112 227.503 36.319 227.425 36.2416L222.175 30.9999Z"
            fill="white" />
    </g>
    <defs>
        <filter id="filter0_d_6979_17980" x="0" y="0" width="252" height="70" filterUnits="userSpaceOnUse"
            color-interpolation-filters="sRGB">
            <feFlood flood-opacity="0" result="BackgroundImageFix" />
            <feColorMatrix in="SourceAlpha" type="matrix" values="0 0 0 0 0 0 0 0 0 0 0 0 0 0 0 0 0 0 127 0"
                result="hardAlpha" />
            <feOffset dy="4" />
            <feGaussianBlur stdDeviation="2" />
            <feComposite in2="hardAlpha" operator="out" />
            <feColorMatrix type="matrix" values="0 0 0 0 0 0 0 0 0 0 0 0 0 0 0 0 0 0 0.16 0" />
            <feBlend mode="normal" in2="BackgroundImageFix" result="effect1_dropShadow_6979_17980" />
            <feBlend mode="normal" in="SourceGraphic" in2="effect1_dropShadow_6979_17980" result="shape" />
        </filter>
    </defs>
</svg>