<svg xmlns="http://www.w3.org/2000/svg" width="751" height="37" viewBox="0 0 751 37" fill="none">
    <path fill-rule="evenodd" clip-rule="evenodd"
        d="M133.514 13.398C125.316 14.9325 117.621 17.154 110.681 20.2686C109.925 20.6122 109.696 21.093 109.628 21.2991C109.513 21.6656 109.559 22.0093 109.742 22.3299C109.857 22.536 110.04 22.788 110.429 22.9483C110.704 23.0628 111.414 23.1543 112.353 23.1314C113.956 23.1085 116.43 22.9254 117.621 22.9254C121.697 22.9712 125.774 22.9481 129.85 23.0168C142.836 23.2458 145.103 23.429 161.798 23.2916C181.288 23.1313 200.824 22.8565 220.336 22.4442C158.318 25.8795 96.3903 29.8874 34.7837 33.6205C34.0966 33.6663 33.5699 34.2619 33.6157 34.949C33.6386 35.6589 34.2568 36.1857 34.9439 36.1399C178.7 27.4371 324.037 17.1768 468.893 16.5127C476.038 16.673 483.16 16.8332 490.26 16.9935C533.156 18.0012 576.074 19.2151 618.924 21.0931C632.871 21.7114 646.819 22.3985 660.789 23.0397C664.911 23.2229 669.057 23.4061 673.202 23.5893C676.546 23.7268 685.157 24.2307 686.37 24.2536C687.47 24.2765 687.745 23.2918 687.768 23.246C687.836 22.9254 687.79 22.5588 687.516 22.2153C687.447 22.1237 687.264 21.8718 686.851 21.7573C686.783 21.7573 686.462 21.7114 685.798 21.6427C651.353 18.8258 616.817 16.8791 582.212 15.6424C586.861 15.6882 591.51 15.7112 596.159 15.757C632.001 16.0318 667.934 17.0166 703.753 15.757C711.906 15.4822 720.082 15.1614 728.213 14.7721C733.686 14.5202 747.771 14.8408 749.763 14.2454C750.679 13.9935 750.885 13.3521 750.908 13.0315C750.931 12.6651 750.863 12.2528 750.45 11.8864C750.267 11.7032 749.695 11.4056 748.618 11.1766C713.464 3.55018 672.331 5.70282 636.536 3.57292C539.316 -2.26712 442.44 1.62641 345.244 5.17624C261.354 8.24512 177.463 8.40539 93.619 12.5736C62.9302 14.0851 31.2797 12.3447 1.02608 18.116C0.339013 18.2534 -0.0962711 18.8944 0.0182392 19.5815C0.155652 20.2685 0.819868 20.7267 1.50693 20.5893C31.6231 14.8409 63.1593 16.6043 93.7336 15.0927C106.994 14.4286 120.254 13.879 133.514 13.398ZM392.88 15.0927C341.511 14.2912 290.142 13.8788 238.727 14.1308C203.458 14.2911 152.065 7.58101 117.025 20.4062C117.277 20.4062 117.483 20.4062 117.666 20.4062C121.743 20.452 125.819 20.406 129.896 20.4976C142.859 20.7266 145.126 20.9098 161.776 20.7724C204.351 20.406 247.04 19.4901 289.592 18.0701C324.06 16.925 358.482 15.8943 392.88 15.0927ZM740.373 12.1383C707.143 6.32115 669.469 8.06196 636.375 6.09238C539.247 0.25234 442.44 4.14559 345.336 7.69541C301.936 9.29856 258.56 10.1001 215.206 11.0849C223.52 11.4055 231.467 11.6345 238.727 11.6116C312.219 11.2451 385.689 12.2301 459.182 13.7874C504.826 13.1004 550.47 12.8485 596.182 13.2149C632.001 13.5126 667.865 14.4745 703.684 13.2378C711.815 12.963 719.968 12.6422 728.098 12.2529C730.869 12.1384 735.885 12.1612 740.373 12.1383Z"
        fill="#fff" />
</svg>